<svg width="156" height="25" viewBox="0 0 156 25" fill="none" xmlns="http://www.w3.org/2000/svg">
  <g clip-path="url(#clip0_1_19)">
    <path d="M0.00331411 25L5.38349 0H12.8197L10.9226 8.81206L20.5341 0H29L17.8059 10.2482L24.2522 25H16.3392L12.2238 14.9077L8.97911 17.7801L7.43624 25H0H0.00331411Z" fill="#A6D819"/>
    <path d="M27 25L32.0375 0H39L33.9625 25H27Z" fill="#A6D819"/>
    <path d="M42.5485 25L42 0H49.2195L49.2589 13.2376L54.0839 3.76592L54.8689 0H60.9125L61.934 13.2766L67.7805 0H75L63.8161 25H57.3422L56.2813 12.0711L49.4133 25H42.5452H42.5485Z" fill="#A6D819"/>
    <path d="M72 25L77.4572 0H85L79.5428 25H72Z" fill="#A6D819"/>
    <path d="M83.0033 24.9967L88.3766 0H102.36C104.546 0 106.199 0.458087 107.32 1.37752C108.438 2.29694 109 3.5575 109 5.16244C109 5.42235 108.98 5.6985 108.94 5.9974C108.901 6.2963 108.854 6.59844 108.802 6.91033C108.537 8.20338 108.064 9.29175 107.38 10.1722C106.695 11.0526 105.892 11.7511 104.969 12.2677C105.786 12.6056 106.424 13.0637 106.884 13.6452C107.343 14.2268 107.575 15.0097 107.575 15.9942C107.575 16.2281 107.555 16.4782 107.515 16.7511C107.476 17.024 107.429 17.3002 107.376 17.5861C106.877 19.9415 105.75 21.7641 103.997 23.0604C102.245 24.3535 100.013 25 97.3012 25H83L83.0033 24.9967ZM91.2203 19.9123H96.3555C97.3574 19.9123 98.1377 19.7044 98.7065 19.2917C99.2719 18.8791 99.6621 18.1904 99.8737 17.2352C99.9002 17.1053 99.92 16.9818 99.9332 16.8681C99.9465 16.7511 99.9531 16.6407 99.9531 16.5367C99.9531 15.9422 99.7414 15.5036 99.3215 15.2177C98.8983 14.9318 98.227 14.7921 97.3078 14.7921H92.3313L91.2269 19.9155L91.2203 19.9123ZM93.3927 9.97401H98.2138C99.1628 9.97401 99.8935 9.76608 100.406 9.35347C100.919 8.94087 101.269 8.34308 101.454 7.5666C101.507 7.43664 101.534 7.30994 101.534 7.17998V6.83236C101.534 6.26381 101.342 5.83496 100.962 5.55231C100.578 5.26641 99.9398 5.12671 99.0471 5.12671H94.4244L93.396 9.98051L93.3927 9.97401Z" fill="white"/>
    <path d="M108 25L113.449 0H133L131.8 5.58877H119.782L118.86 9.66663H129.396L128.155 15.3334H117.62L116.738 19.4112H128.755L127.555 25H108.003H108Z" fill="white"/>
    <path d="M135.443 25L139.692 5.43535H132.5L133.651 0H155.5L154.349 5.43535H147.157L142.908 25H135.439H135.443Z" fill="white"/>
  </g>
  <defs>
    <clipPath id="clip0_1_19">
      <rect width="155.5" height="25" fill="white"/>
    </clipPath>
  </defs>
</svg>
